<?xml version="1.0" standalone="no"?>
<!DOCTYPE svg PUBLIC "-//W3C//DTD SVG 20010904//EN"
 "http://www.w3.org/TR/2001/REC-SVG-20010904/DTD/svg10.dtd">
<svg version="1.0" xmlns="http://www.w3.org/2000/svg"
 width="483.000000pt" height="106.000000pt" viewBox="0 0 483.000000 106.000000"
 preserveAspectRatio="xMidYMid meet">

<g transform="translate(0.000000,106.000000) scale(0.100000,-0.100000)"
fill="#7c3aed" stroke="none">
<path d="M4495 928 c-71 -50 -162 -114 -202 -142 -40 -28 -157 -110 -260 -183
-356 -250 -331 -229 -400 -333 -75 -112 -94 -130 -139 -130 -46 0 -78 16 -98
51 -22 37 -16 54 20 63 52 13 135 60 160 89 30 36 33 98 5 126 -90 90 -290
-41 -317 -207 -7 -46 -62 -106 -108 -118 -32 -8 -64 11 -72 42 -21 83 30 373
92 528 14 37 24 69 21 72 -2 3 -29 2 -58 -2 -49 -6 -59 -12 -107 -62 -58 -62
-126 -187 -192 -351 -22 -57 -50 -120 -61 -140 l-20 -36 6 35 c6 40 24 553 19
559 -2 2 -23 0 -48 -3 -36 -6 -48 -13 -69 -44 -47 -71 -74 -137 -101 -242 -54
-210 -83 -283 -137 -345 -32 -36 -68 -45 -87 -22 -6 6 -13 29 -17 50 -4 20
-13 37 -20 37 -19 0 -73 -47 -80 -70 -10 -33 21 -78 64 -91 52 -15 98 0 151
53 54 52 91 135 140 313 47 170 75 249 95 265 13 11 13 7 1 -27 -19 -54 -36
-198 -36 -308 0 -90 -13 -227 -25 -278 -6 -24 -4 -27 19 -27 86 0 134 60 230
286 85 200 121 271 162 323 19 24 34 41 34 38 0 -3 -16 -38 -35 -79 -43 -90
-85 -269 -85 -363 0 -85 13 -136 45 -172 20 -24 31 -28 72 -27 57 1 99 21 159
76 25 23 45 39 47 37 1 -2 11 -22 22 -44 15 -30 31 -44 68 -59 42 -18 54 -19
103 -8 34 7 76 26 113 52 44 31 83 48 150 65 51 13 97 27 104 32 28 21 822
580 863 608 82 55 96 115 40 171 -55 55 -79 49 -231 -58z m229 27 c16 -44 -8
-105 -42 -105 -19 1 -82 87 -82 113 0 41 107 34 124 -8z m-140 -32 c8 -16 26
-40 40 -55 28 -29 33 -52 14 -64 -7 -4 -18 2 -27 17 -9 13 -31 41 -50 61 -28
32 -31 41 -21 53 18 21 28 19 44 -12z m-46 -38 c14 -29 57 5 -396 -314 -189
-133 -351 -241 -360 -239 -10 2 -18 13 -20 25 -3 17 17 36 100 94 57 40 180
126 273 192 94 66 196 139 228 161 32 23 77 55 100 73 51 39 61 40 75 8z m52
-70 c6 -8 10 -19 8 -24 -1 -5 -113 -87 -248 -182 -135 -94 -304 -214 -376
-265 -73 -52 -139 -94 -148 -94 -11 0 -16 9 -16 28 0 25 12 37 88 90 91 64
118 82 322 227 282 200 334 235 345 235 7 0 18 -7 25 -15z m-1090 -370 c15
-18 7 -77 -15 -111 -15 -23 -82 -64 -105 -64 -12 0 -6 49 11 107 20 65 80 103
109 68z m258 -133 c15 -12 23 -29 25 -57 l2 -39 -50 -12 c-79 -19 -95 -17 -95
9 0 32 57 117 78 117 9 0 27 -8 40 -18z"/>
<path d="M420 779 c-119 -21 -223 -89 -264 -171 -31 -62 -33 -111 -6 -155 23
-38 30 -39 88 -13 46 21 47 30 5 63 -29 23 -31 79 -4 124 82 134 368 168 424
50 22 -46 21 -122 -2 -173 -23 -50 -33 -57 -90 -64 -48 -5 -67 -28 -32 -37 32
-8 36 -47 16 -145 -22 -109 -12 -158 38 -188 56 -35 118 -19 204 50 l58 47 17
-39 c33 -73 139 -97 232 -53 62 29 161 121 225 208 l64 87 38 -67 c51 -94 54
-125 13 -167 -17 -16 -38 -26 -56 -26 -24 0 -32 6 -43 34 -21 49 -31 51 -65
14 -35 -38 -38 -58 -11 -82 51 -46 159 -18 231 60 71 78 79 133 31 234 -26 55
-29 71 -21 99 9 32 9 32 -21 27 -16 -3 -42 -9 -58 -12 -20 -3 -33 -14 -42 -36
-20 -49 -103 -169 -145 -212 -109 -109 -210 -126 -258 -45 -22 37 -16 54 20
63 52 13 135 60 160 89 30 36 33 98 5 126 -90 90 -290 -41 -317 -207 -12 -75
-132 -165 -161 -119 -4 6 -6 51 -5 99 l4 86 -36 40 c-41 45 -43 52 -18 52 32
0 118 47 145 79 37 45 44 93 21 149 -22 52 -83 105 -142 122 -55 15 -179 20
-242 9z m670 -334 c15 -18 7 -77 -15 -111 -15 -23 -82 -64 -105 -64 -12 0 -6
49 11 107 20 65 80 103 109 68z"/>
<path d="M504 661 c-90 -41 -127 -115 -159 -316 -25 -155 -81 -255 -144 -255
-52 0 -71 33 -64 108 6 54 6 54 -18 47 -37 -12 -88 -48 -94 -67 -9 -26 20 -84
51 -105 20 -13 47 -18 95 -18 56 0 77 5 135 35 119 61 163 142 200 370 17 111
29 143 63 174 16 15 18 22 10 33 -15 17 -26 16 -75 -6z"/>
<path d="M1797 485 c-32 -7 -62 -16 -67 -21 -21 -23 -62 -185 -67 -266 -6 -86
-6 -87 25 -117 17 -17 40 -31 52 -31 37 0 88 28 139 75 l49 46 6 -37 c9 -43
46 -84 78 -84 56 0 198 105 198 146 0 30 -11 30 -36 3 -43 -48 -108 -63 -119
-29 -8 26 -2 56 41 199 19 62 34 117 34 121 0 7 -26 3 -107 -15 -19 -4 -29
-25 -60 -128 -33 -105 -44 -128 -80 -165 -33 -35 -47 -43 -70 -40 -27 3 -28 4
-27 63 1 37 15 104 37 175 20 63 35 115 34 116 -1 0 -28 -5 -60 -11z"/>
</g>
</svg>
